<svg xmlns="http://www.w3.org/2000/svg" xmlns:xlink="http://www.w3.org/1999/xlink" width="1080" zoomAndPan="magnify" viewBox="0 0 810 1439.999935" height="1920" preserveAspectRatio="xMidYMid meet" version="1.0"><defs><filter x="0%" y="0%" width="100%" height="100%" id="ba8ccb6d9a"><feColorMatrix values="0 0 0 0 1 0 0 0 0 1 0 0 0 0 1 0 0 0 1 0" color-interpolation-filters="sRGB"/></filter><linearGradient x1="1001.940774" gradientTransform="matrix(0.72, 0, 0, 0.72, -314.999968, -0.00002)" y1="2001.086924" x2="998.058561" gradientUnits="userSpaceOnUse" y2="-1.086895" id="99439beeaa"><stop stop-opacity="1" stop-color="rgb(89.7995%, 98.799133%, 99.598694%)" offset="0"/><stop stop-opacity="1" stop-color="rgb(89.7995%, 98.799133%, 99.598694%)" offset="0.0010895"/><stop stop-opacity="1" stop-color="rgb(89.7995%, 98.799133%, 99.598694%)" offset="0.25"/><stop stop-opacity="1" stop-color="rgb(89.678955%, 98.779297%, 99.591064%)" offset="0.28125"/><stop stop-opacity="1" stop-color="rgb(89.305115%, 98.71521%, 99.565125%)" offset="0.285156"/><stop stop-opacity="1" stop-color="rgb(89.050293%, 98.672485%, 99.54834%)" offset="0.289062"/><stop stop-opacity="1" stop-color="rgb(88.793945%, 98.629761%, 99.530029%)" offset="0.292969"/><stop stop-opacity="1" stop-color="rgb(88.539124%, 98.587036%, 99.511719%)" offset="0.296875"/><stop stop-opacity="1" stop-color="rgb(88.284302%, 98.544312%, 99.493408%)" offset="0.300781"/><stop stop-opacity="1" stop-color="rgb(88.02948%, 98.501587%, 99.476624%)" offset="0.304688"/><stop stop-opacity="1" stop-color="rgb(87.774658%, 98.457336%, 99.458313%)" offset="0.308594"/><stop stop-opacity="1" stop-color="rgb(87.519836%, 98.414612%, 99.441528%)" offset="0.3125"/><stop stop-opacity="1" stop-color="rgb(87.263489%, 98.371887%, 99.423218%)" offset="0.316406"/><stop stop-opacity="1" stop-color="rgb(87.008667%, 98.329163%, 99.406433%)" offset="0.320312"/><stop stop-opacity="1" stop-color="rgb(86.753845%, 98.286438%, 99.388123%)" offset="0.324219"/><stop stop-opacity="1" stop-color="rgb(86.499023%, 98.243713%, 99.371338%)" offset="0.328125"/><stop stop-opacity="1" stop-color="rgb(86.244202%, 98.200989%, 99.353027%)" offset="0.332031"/><stop stop-opacity="1" stop-color="rgb(85.98938%, 98.158264%, 99.336243%)" offset="0.335937"/><stop stop-opacity="1" stop-color="rgb(85.733032%, 98.114014%, 99.317932%)" offset="0.339844"/><stop stop-opacity="1" stop-color="rgb(85.47821%, 98.071289%, 99.301147%)" offset="0.34375"/><stop stop-opacity="1" stop-color="rgb(85.223389%, 98.028564%, 99.282837%)" offset="0.347656"/><stop stop-opacity="1" stop-color="rgb(84.968567%, 97.98584%, 99.266052%)" offset="0.351562"/><stop stop-opacity="1" stop-color="rgb(84.713745%, 97.943115%, 99.247742%)" offset="0.355469"/><stop stop-opacity="1" stop-color="rgb(84.458923%, 97.900391%, 99.230957%)" offset="0.359375"/><stop stop-opacity="1" stop-color="rgb(84.202576%, 97.85614%, 99.212646%)" offset="0.363281"/><stop stop-opacity="1" stop-color="rgb(83.947754%, 97.813416%, 99.195862%)" offset="0.367188"/><stop stop-opacity="1" stop-color="rgb(83.692932%, 97.770691%, 99.177551%)" offset="0.371094"/><stop stop-opacity="1" stop-color="rgb(83.43811%, 97.727966%, 99.160767%)" offset="0.375"/><stop stop-opacity="1" stop-color="rgb(83.183289%, 97.685242%, 99.142456%)" offset="0.378906"/><stop stop-opacity="1" stop-color="rgb(82.928467%, 97.642517%, 99.125671%)" offset="0.382812"/><stop stop-opacity="1" stop-color="rgb(82.673645%, 97.599792%, 99.107361%)" offset="0.386719"/><stop stop-opacity="1" stop-color="rgb(82.418823%, 97.557068%, 99.090576%)" offset="0.390625"/><stop stop-opacity="1" stop-color="rgb(82.162476%, 97.512817%, 99.072266%)" offset="0.394531"/><stop stop-opacity="1" stop-color="rgb(81.907654%, 97.470093%, 99.055481%)" offset="0.398437"/><stop stop-opacity="1" stop-color="rgb(81.652832%, 97.427368%, 99.03717%)" offset="0.402344"/><stop stop-opacity="1" stop-color="rgb(81.39801%, 97.384644%, 99.020386%)" offset="0.40625"/><stop stop-opacity="1" stop-color="rgb(81.143188%, 97.341919%, 99.002075%)" offset="0.410156"/><stop stop-opacity="1" stop-color="rgb(80.888367%, 97.299194%, 98.985291%)" offset="0.414062"/><stop stop-opacity="1" stop-color="rgb(80.632019%, 97.254944%, 98.96698%)" offset="0.417969"/><stop stop-opacity="1" stop-color="rgb(80.377197%, 97.212219%, 98.950195%)" offset="0.421875"/><stop stop-opacity="1" stop-color="rgb(80.122375%, 97.169495%, 98.931885%)" offset="0.425781"/><stop stop-opacity="1" stop-color="rgb(79.867554%, 97.12677%, 98.9151%)" offset="0.429687"/><stop stop-opacity="1" stop-color="rgb(79.612732%, 97.084045%, 98.89679%)" offset="0.433594"/><stop stop-opacity="1" stop-color="rgb(79.35791%, 97.041321%, 98.880005%)" offset="0.4375"/><stop stop-opacity="1" stop-color="rgb(79.101562%, 96.998596%, 98.861694%)" offset="0.441406"/><stop stop-opacity="1" stop-color="rgb(78.846741%, 96.955872%, 98.84491%)" offset="0.445312"/><stop stop-opacity="1" stop-color="rgb(78.591919%, 96.911621%, 98.826599%)" offset="0.449219"/><stop stop-opacity="1" stop-color="rgb(78.337097%, 96.868896%, 98.809814%)" offset="0.453125"/><stop stop-opacity="1" stop-color="rgb(78.082275%, 96.826172%, 98.791504%)" offset="0.457031"/><stop stop-opacity="1" stop-color="rgb(77.827454%, 96.783447%, 98.774719%)" offset="0.460937"/><stop stop-opacity="1" stop-color="rgb(77.571106%, 96.740723%, 98.756409%)" offset="0.464844"/><stop stop-opacity="1" stop-color="rgb(77.316284%, 96.697998%, 98.739624%)" offset="0.46875"/><stop stop-opacity="1" stop-color="rgb(77.061462%, 96.653748%, 98.721313%)" offset="0.472656"/><stop stop-opacity="1" stop-color="rgb(76.806641%, 96.611023%, 98.704529%)" offset="0.476562"/><stop stop-opacity="1" stop-color="rgb(76.551819%, 96.568298%, 98.686218%)" offset="0.480469"/><stop stop-opacity="1" stop-color="rgb(76.296997%, 96.525574%, 98.669434%)" offset="0.484375"/><stop stop-opacity="1" stop-color="rgb(76.040649%, 96.482849%, 98.651123%)" offset="0.488281"/><stop stop-opacity="1" stop-color="rgb(75.785828%, 96.440125%, 98.634338%)" offset="0.492188"/><stop stop-opacity="1" stop-color="rgb(75.531006%, 96.3974%, 98.616028%)" offset="0.496094"/><stop stop-opacity="1" stop-color="rgb(75.276184%, 96.354675%, 98.599243%)" offset="0.5"/><stop stop-opacity="1" stop-color="rgb(75.021362%, 96.310425%, 98.580933%)" offset="0.503906"/><stop stop-opacity="1" stop-color="rgb(74.766541%, 96.2677%, 98.564148%)" offset="0.507812"/><stop stop-opacity="1" stop-color="rgb(74.510193%, 96.224976%, 98.545837%)" offset="0.511719"/><stop stop-opacity="1" stop-color="rgb(74.255371%, 96.182251%, 98.529053%)" offset="0.515625"/><stop stop-opacity="1" stop-color="rgb(74.000549%, 96.139526%, 98.510742%)" offset="0.519531"/><stop stop-opacity="1" stop-color="rgb(73.745728%, 96.096802%, 98.493958%)" offset="0.523438"/><stop stop-opacity="1" stop-color="rgb(73.490906%, 96.052551%, 98.475647%)" offset="0.527344"/><stop stop-opacity="1" stop-color="rgb(73.236084%, 96.009827%, 98.458862%)" offset="0.53125"/><stop stop-opacity="1" stop-color="rgb(72.981262%, 95.967102%, 98.440552%)" offset="0.535156"/><stop stop-opacity="1" stop-color="rgb(72.72644%, 95.924377%, 98.423767%)" offset="0.539062"/><stop stop-opacity="1" stop-color="rgb(72.470093%, 95.881653%, 98.405457%)" offset="0.542969"/><stop stop-opacity="1" stop-color="rgb(72.215271%, 95.838928%, 98.388672%)" offset="0.546875"/><stop stop-opacity="1" stop-color="rgb(71.960449%, 95.796204%, 98.370361%)" offset="0.550781"/><stop stop-opacity="1" stop-color="rgb(71.705627%, 95.753479%, 98.353577%)" offset="0.554687"/><stop stop-opacity="1" stop-color="rgb(71.450806%, 95.709229%, 98.335266%)" offset="0.558594"/><stop stop-opacity="1" stop-color="rgb(71.195984%, 95.666504%, 98.318481%)" offset="0.5625"/><stop stop-opacity="1" stop-color="rgb(70.939636%, 95.623779%, 98.300171%)" offset="0.566406"/><stop stop-opacity="1" stop-color="rgb(70.684814%, 95.581055%, 98.283386%)" offset="0.570312"/><stop stop-opacity="1" stop-color="rgb(70.429993%, 95.53833%, 98.265076%)" offset="0.574219"/><stop stop-opacity="1" stop-color="rgb(70.175171%, 95.495605%, 98.248291%)" offset="0.578125"/><stop stop-opacity="1" stop-color="rgb(69.920349%, 95.451355%, 98.22998%)" offset="0.582031"/><stop stop-opacity="1" stop-color="rgb(69.665527%, 95.40863%, 98.213196%)" offset="0.585938"/><stop stop-opacity="1" stop-color="rgb(69.40918%, 95.365906%, 98.194885%)" offset="0.589844"/><stop stop-opacity="1" stop-color="rgb(69.154358%, 95.323181%, 98.176575%)" offset="0.59375"/><stop stop-opacity="1" stop-color="rgb(68.899536%, 95.280457%, 98.158264%)" offset="0.597656"/><stop stop-opacity="1" stop-color="rgb(68.644714%, 95.237732%, 98.141479%)" offset="0.601562"/><stop stop-opacity="1" stop-color="rgb(68.389893%, 95.195007%, 98.123169%)" offset="0.605469"/><stop stop-opacity="1" stop-color="rgb(68.135071%, 95.152283%, 98.106384%)" offset="0.609375"/><stop stop-opacity="1" stop-color="rgb(67.878723%, 95.108032%, 98.088074%)" offset="0.613281"/><stop stop-opacity="1" stop-color="rgb(67.623901%, 95.065308%, 98.071289%)" offset="0.617188"/><stop stop-opacity="1" stop-color="rgb(67.36908%, 95.022583%, 98.052979%)" offset="0.621094"/><stop stop-opacity="1" stop-color="rgb(67.114258%, 94.979858%, 98.036194%)" offset="0.625"/><stop stop-opacity="1" stop-color="rgb(66.859436%, 94.937134%, 98.017883%)" offset="0.628906"/><stop stop-opacity="1" stop-color="rgb(66.604614%, 94.894409%, 98.001099%)" offset="0.632812"/><stop stop-opacity="1" stop-color="rgb(66.348267%, 94.850159%, 97.982788%)" offset="0.636719"/><stop stop-opacity="1" stop-color="rgb(66.093445%, 94.807434%, 97.966003%)" offset="0.640625"/><stop stop-opacity="1" stop-color="rgb(65.838623%, 94.764709%, 97.947693%)" offset="0.644531"/><stop stop-opacity="1" stop-color="rgb(65.583801%, 94.721985%, 97.930908%)" offset="0.648437"/><stop stop-opacity="1" stop-color="rgb(65.328979%, 94.67926%, 97.912598%)" offset="0.652344"/><stop stop-opacity="1" stop-color="rgb(65.074158%, 94.636536%, 97.895813%)" offset="0.65625"/><stop stop-opacity="1" stop-color="rgb(64.819336%, 94.593811%, 97.877502%)" offset="0.660156"/><stop stop-opacity="1" stop-color="rgb(64.564514%, 94.551086%, 97.860718%)" offset="0.664062"/><stop stop-opacity="1" stop-color="rgb(64.308167%, 94.506836%, 97.842407%)" offset="0.667969"/><stop stop-opacity="1" stop-color="rgb(64.053345%, 94.464111%, 97.825623%)" offset="0.671875"/><stop stop-opacity="1" stop-color="rgb(63.798523%, 94.421387%, 97.807312%)" offset="0.675781"/><stop stop-opacity="1" stop-color="rgb(63.543701%, 94.378662%, 97.790527%)" offset="0.679688"/><stop stop-opacity="1" stop-color="rgb(63.288879%, 94.335938%, 97.772217%)" offset="0.683594"/><stop stop-opacity="1" stop-color="rgb(63.034058%, 94.293213%, 97.755432%)" offset="0.6875"/><stop stop-opacity="1" stop-color="rgb(62.77771%, 94.248962%, 97.737122%)" offset="0.691406"/><stop stop-opacity="1" stop-color="rgb(62.522888%, 94.206238%, 97.720337%)" offset="0.695312"/><stop stop-opacity="1" stop-color="rgb(62.268066%, 94.163513%, 97.702026%)" offset="0.699219"/><stop stop-opacity="1" stop-color="rgb(62.013245%, 94.120789%, 97.685242%)" offset="0.703125"/><stop stop-opacity="1" stop-color="rgb(61.758423%, 94.078064%, 97.666931%)" offset="0.707031"/><stop stop-opacity="1" stop-color="rgb(61.503601%, 94.035339%, 97.650146%)" offset="0.710937"/><stop stop-opacity="1" stop-color="rgb(61.247253%, 93.992615%, 97.631836%)" offset="0.714844"/><stop stop-opacity="1" stop-color="rgb(60.992432%, 93.94989%, 97.615051%)" offset="0.71875"/><stop stop-opacity="1" stop-color="rgb(60.73761%, 93.90564%, 97.596741%)" offset="0.722656"/><stop stop-opacity="1" stop-color="rgb(60.482788%, 93.862915%, 97.579956%)" offset="0.726562"/><stop stop-opacity="1" stop-color="rgb(60.227966%, 93.82019%, 97.561646%)" offset="0.730469"/><stop stop-opacity="1" stop-color="rgb(59.973145%, 93.777466%, 97.544861%)" offset="0.734375"/><stop stop-opacity="1" stop-color="rgb(59.716797%, 93.734741%, 97.52655%)" offset="0.738281"/><stop stop-opacity="1" stop-color="rgb(59.461975%, 93.692017%, 97.509766%)" offset="0.742187"/><stop stop-opacity="1" stop-color="rgb(59.207153%, 93.647766%, 97.491455%)" offset="0.746094"/><stop stop-opacity="1" stop-color="rgb(58.952332%, 93.605042%, 97.47467%)" offset="0.75"/><stop stop-opacity="1" stop-color="rgb(58.69751%, 93.562317%, 97.45636%)" offset="0.753906"/><stop stop-opacity="1" stop-color="rgb(58.442688%, 93.519592%, 97.439575%)" offset="0.757812"/><stop stop-opacity="1" stop-color="rgb(58.18634%, 93.476868%, 97.421265%)" offset="0.761719"/><stop stop-opacity="1" stop-color="rgb(57.931519%, 93.434143%, 97.40448%)" offset="0.765625"/><stop stop-opacity="1" stop-color="rgb(57.676697%, 93.391418%, 97.386169%)" offset="0.769531"/><stop stop-opacity="1" stop-color="rgb(57.421875%, 93.348694%, 97.369385%)" offset="0.773438"/><stop stop-opacity="1" stop-color="rgb(57.167053%, 93.304443%, 97.351074%)" offset="0.777344"/><stop stop-opacity="1" stop-color="rgb(56.912231%, 93.261719%, 97.33429%)" offset="0.78125"/><stop stop-opacity="1" stop-color="rgb(56.65741%, 93.218994%, 97.315979%)" offset="0.785156"/><stop stop-opacity="1" stop-color="rgb(56.402588%, 93.17627%, 97.299194%)" offset="0.789062"/><stop stop-opacity="1" stop-color="rgb(56.14624%, 93.133545%, 97.280884%)" offset="0.792969"/><stop stop-opacity="1" stop-color="rgb(55.891418%, 93.09082%, 97.264099%)" offset="0.796875"/><stop stop-opacity="1" stop-color="rgb(55.636597%, 93.04657%, 97.245789%)" offset="0.800781"/><stop stop-opacity="1" stop-color="rgb(55.381775%, 93.003845%, 97.229004%)" offset="0.804687"/><stop stop-opacity="1" stop-color="rgb(55.126953%, 92.961121%, 97.210693%)" offset="0.808594"/><stop stop-opacity="1" stop-color="rgb(54.872131%, 92.918396%, 97.193909%)" offset="0.8125"/><stop stop-opacity="1" stop-color="rgb(54.615784%, 92.875671%, 97.175598%)" offset="0.816406"/><stop stop-opacity="1" stop-color="rgb(54.360962%, 92.832947%, 97.158813%)" offset="0.820312"/><stop stop-opacity="1" stop-color="rgb(54.10614%, 92.790222%, 97.140503%)" offset="0.824219"/><stop stop-opacity="1" stop-color="rgb(53.851318%, 92.747498%, 97.123718%)" offset="0.828125"/><stop stop-opacity="1" stop-color="rgb(53.596497%, 92.703247%, 97.105408%)" offset="0.832031"/><stop stop-opacity="1" stop-color="rgb(53.341675%, 92.660522%, 97.088623%)" offset="0.835938"/><stop stop-opacity="1" stop-color="rgb(53.085327%, 92.617798%, 97.070312%)" offset="0.839844"/><stop stop-opacity="1" stop-color="rgb(52.830505%, 92.575073%, 97.053528%)" offset="0.84375"/><stop stop-opacity="1" stop-color="rgb(52.575684%, 92.532349%, 97.035217%)" offset="0.847656"/><stop stop-opacity="1" stop-color="rgb(52.320862%, 92.489624%, 97.018433%)" offset="0.851562"/><stop stop-opacity="1" stop-color="rgb(52.06604%, 92.445374%, 97.000122%)" offset="0.855469"/><stop stop-opacity="1" stop-color="rgb(51.811218%, 92.402649%, 96.983337%)" offset="0.859375"/><stop stop-opacity="1" stop-color="rgb(51.554871%, 92.359924%, 96.965027%)" offset="0.863281"/><stop stop-opacity="1" stop-color="rgb(51.300049%, 92.3172%, 96.948242%)" offset="0.867188"/><stop stop-opacity="1" stop-color="rgb(51.045227%, 92.274475%, 96.929932%)" offset="0.871094"/><stop stop-opacity="1" stop-color="rgb(50.790405%, 92.23175%, 96.913147%)" offset="0.875"/><stop stop-opacity="1" stop-color="rgb(50.694275%, 92.214966%, 96.905518%)" offset="0.998911"/><stop stop-opacity="1" stop-color="rgb(50.59967%, 92.199707%, 96.899414%)" offset="1"/></linearGradient><clipPath id="13b33f37ad"><path d="M 0 451 L 810 451 L 810 1440 L 0 1440 Z M 0 451 " clip-rule="nonzero"/></clipPath><clipPath id="2f739f655f"><path d="M 1125 451.757812 L 1125 1440 L -315 1440 L -315 484.855469 C -288.113281 466.507812 -251.128906 466.558594 -219.484375 476.105469 C -185.132812 486.46875 -154.511719 506.269531 -121.789062 520.976562 C -52.386719 552.183594 24.976562 559.9375 100.863281 565.597656 C 148.515625 569.152344 196.675781 572.027344 243.894531 564.6875 C 293.890625 556.917969 341.351562 537.949219 390.117188 524.46875 C 563.429688 476.582031 747.230469 499.175781 926.898438 492.105469 C 976.472656 490.152344 1026.445312 485.820312 1073.722656 470.785156 C 1091.089844 465.265625 1107.992188 458.332031 1125 451.757812 Z M 1125 451.757812 " clip-rule="nonzero"/></clipPath><linearGradient x1="1003.328285" gradientTransform="matrix(0.72, 0, 0, 0.72, -314.999968, -0.00002)" y1="2002.70111" x2="996.671962" gradientUnits="userSpaceOnUse" y2="624.738889" id="961b3765a8"><stop stop-opacity="1" stop-color="rgb(89.7995%, 98.799133%, 99.598694%)" offset="0"/><stop stop-opacity="1" stop-color="rgb(89.674377%, 98.789978%, 99.60022%)" offset="0.00394368"/><stop stop-opacity="1" stop-color="rgb(89.550781%, 98.780823%, 99.603271%)" offset="0.25"/><stop stop-opacity="1" stop-color="rgb(89.422607%, 98.771667%, 99.606323%)" offset="0.257812"/><stop stop-opacity="1" stop-color="rgb(89.169312%, 98.753357%, 99.610901%)" offset="0.265625"/><stop stop-opacity="1" stop-color="rgb(88.91449%, 98.735046%, 99.615479%)" offset="0.273438"/><stop stop-opacity="1" stop-color="rgb(88.659668%, 98.716736%, 99.620056%)" offset="0.28125"/><stop stop-opacity="1" stop-color="rgb(88.404846%, 98.698425%, 99.62616%)" offset="0.289062"/><stop stop-opacity="1" stop-color="rgb(88.15155%, 98.680115%, 99.630737%)" offset="0.296875"/><stop stop-opacity="1" stop-color="rgb(87.896729%, 98.661804%, 99.635315%)" offset="0.304687"/><stop stop-opacity="1" stop-color="rgb(87.641907%, 98.643494%, 99.639893%)" offset="0.3125"/><stop stop-opacity="1" stop-color="rgb(87.387085%, 98.625183%, 99.64447%)" offset="0.320312"/><stop stop-opacity="1" stop-color="rgb(87.133789%, 98.606873%, 99.650574%)" offset="0.328125"/><stop stop-opacity="1" stop-color="rgb(86.878967%, 98.588562%, 99.655151%)" offset="0.335938"/><stop stop-opacity="1" stop-color="rgb(86.624146%, 98.570251%, 99.659729%)" offset="0.34375"/><stop stop-opacity="1" stop-color="rgb(86.37085%, 98.551941%, 99.664307%)" offset="0.351562"/><stop stop-opacity="1" stop-color="rgb(86.116028%, 98.53363%, 99.668884%)" offset="0.359375"/><stop stop-opacity="1" stop-color="rgb(85.861206%, 98.51532%, 99.674988%)" offset="0.367188"/><stop stop-opacity="1" stop-color="rgb(85.606384%, 98.497009%, 99.679565%)" offset="0.375"/><stop stop-opacity="1" stop-color="rgb(85.353088%, 98.478699%, 99.684143%)" offset="0.382812"/><stop stop-opacity="1" stop-color="rgb(85.098267%, 98.460388%, 99.688721%)" offset="0.390625"/><stop stop-opacity="1" stop-color="rgb(84.843445%, 98.442078%, 99.693298%)" offset="0.398437"/><stop stop-opacity="1" stop-color="rgb(84.588623%, 98.423767%, 99.699402%)" offset="0.40625"/><stop stop-opacity="1" stop-color="rgb(84.335327%, 98.405457%, 99.703979%)" offset="0.414062"/><stop stop-opacity="1" stop-color="rgb(84.080505%, 98.387146%, 99.708557%)" offset="0.421875"/><stop stop-opacity="1" stop-color="rgb(83.825684%, 98.368835%, 99.713135%)" offset="0.429688"/><stop stop-opacity="1" stop-color="rgb(83.570862%, 98.350525%, 99.717712%)" offset="0.4375"/><stop stop-opacity="1" stop-color="rgb(83.317566%, 98.332214%, 99.723816%)" offset="0.445312"/><stop stop-opacity="1" stop-color="rgb(83.062744%, 98.313904%, 99.728394%)" offset="0.453125"/><stop stop-opacity="1" stop-color="rgb(82.807922%, 98.295593%, 99.732971%)" offset="0.460938"/><stop stop-opacity="1" stop-color="rgb(82.554626%, 98.277283%, 99.737549%)" offset="0.46875"/><stop stop-opacity="1" stop-color="rgb(82.299805%, 98.258972%, 99.742126%)" offset="0.476562"/><stop stop-opacity="1" stop-color="rgb(82.044983%, 98.240662%, 99.74823%)" offset="0.484375"/><stop stop-opacity="1" stop-color="rgb(81.790161%, 98.222351%, 99.752808%)" offset="0.492187"/><stop stop-opacity="1" stop-color="rgb(81.536865%, 98.204041%, 99.757385%)" offset="0.5"/><stop stop-opacity="1" stop-color="rgb(81.282043%, 98.18573%, 99.761963%)" offset="0.507812"/><stop stop-opacity="1" stop-color="rgb(81.027222%, 98.167419%, 99.768066%)" offset="0.515625"/><stop stop-opacity="1" stop-color="rgb(80.7724%, 98.147583%, 99.772644%)" offset="0.523437"/><stop stop-opacity="1" stop-color="rgb(80.519104%, 98.129272%, 99.777222%)" offset="0.53125"/><stop stop-opacity="1" stop-color="rgb(80.264282%, 98.110962%, 99.781799%)" offset="0.539062"/><stop stop-opacity="1" stop-color="rgb(80.00946%, 98.092651%, 99.786377%)" offset="0.546875"/><stop stop-opacity="1" stop-color="rgb(79.756165%, 98.074341%, 99.79248%)" offset="0.554688"/><stop stop-opacity="1" stop-color="rgb(79.501343%, 98.05603%, 99.797058%)" offset="0.5625"/><stop stop-opacity="1" stop-color="rgb(79.246521%, 98.03772%, 99.801636%)" offset="0.570312"/><stop stop-opacity="1" stop-color="rgb(78.991699%, 98.019409%, 99.806213%)" offset="0.578125"/><stop stop-opacity="1" stop-color="rgb(78.738403%, 98.001099%, 99.810791%)" offset="0.585937"/><stop stop-opacity="1" stop-color="rgb(78.483582%, 97.982788%, 99.816895%)" offset="0.59375"/><stop stop-opacity="1" stop-color="rgb(78.22876%, 97.964478%, 99.821472%)" offset="0.601562"/><stop stop-opacity="1" stop-color="rgb(77.973938%, 97.946167%, 99.82605%)" offset="0.609375"/><stop stop-opacity="1" stop-color="rgb(77.720642%, 97.927856%, 99.830627%)" offset="0.617187"/><stop stop-opacity="1" stop-color="rgb(77.46582%, 97.909546%, 99.835205%)" offset="0.625"/><stop stop-opacity="1" stop-color="rgb(77.210999%, 97.891235%, 99.841309%)" offset="0.632812"/><stop stop-opacity="1" stop-color="rgb(76.957703%, 97.872925%, 99.845886%)" offset="0.640625"/><stop stop-opacity="1" stop-color="rgb(76.702881%, 97.854614%, 99.850464%)" offset="0.648438"/><stop stop-opacity="1" stop-color="rgb(76.448059%, 97.836304%, 99.855042%)" offset="0.65625"/><stop stop-opacity="1" stop-color="rgb(76.193237%, 97.817993%, 99.859619%)" offset="0.664062"/><stop stop-opacity="1" stop-color="rgb(75.939941%, 97.799683%, 99.865723%)" offset="0.671875"/><stop stop-opacity="1" stop-color="rgb(75.68512%, 97.781372%, 99.8703%)" offset="0.679687"/><stop stop-opacity="1" stop-color="rgb(75.430298%, 97.763062%, 99.874878%)" offset="0.6875"/><stop stop-opacity="1" stop-color="rgb(75.175476%, 97.744751%, 99.879456%)" offset="0.695312"/><stop stop-opacity="1" stop-color="rgb(74.92218%, 97.72644%, 99.884033%)" offset="0.703125"/><stop stop-opacity="1" stop-color="rgb(74.667358%, 97.70813%, 99.890137%)" offset="0.710937"/><stop stop-opacity="1" stop-color="rgb(74.412537%, 97.689819%, 99.894714%)" offset="0.71875"/><stop stop-opacity="1" stop-color="rgb(74.157715%, 97.671509%, 99.899292%)" offset="0.726562"/><stop stop-opacity="1" stop-color="rgb(73.904419%, 97.653198%, 99.90387%)" offset="0.734375"/><stop stop-opacity="1" stop-color="rgb(73.649597%, 97.634888%, 99.908447%)" offset="0.742187"/><stop stop-opacity="1" stop-color="rgb(73.394775%, 97.616577%, 99.914551%)" offset="0.75"/><stop stop-opacity="1" stop-color="rgb(73.141479%, 97.598267%, 99.919128%)" offset="0.757812"/><stop stop-opacity="1" stop-color="rgb(72.886658%, 97.579956%, 99.923706%)" offset="0.765625"/><stop stop-opacity="1" stop-color="rgb(72.631836%, 97.561646%, 99.928284%)" offset="0.773437"/><stop stop-opacity="1" stop-color="rgb(72.377014%, 97.543335%, 99.934387%)" offset="0.78125"/><stop stop-opacity="1" stop-color="rgb(72.123718%, 97.525024%, 99.938965%)" offset="0.789062"/><stop stop-opacity="1" stop-color="rgb(71.868896%, 97.506714%, 99.943542%)" offset="0.796875"/><stop stop-opacity="1" stop-color="rgb(71.614075%, 97.488403%, 99.94812%)" offset="0.804687"/><stop stop-opacity="1" stop-color="rgb(71.359253%, 97.470093%, 99.952698%)" offset="0.8125"/><stop stop-opacity="1" stop-color="rgb(71.105957%, 97.451782%, 99.958801%)" offset="0.820312"/><stop stop-opacity="1" stop-color="rgb(70.851135%, 97.433472%, 99.963379%)" offset="0.828125"/><stop stop-opacity="1" stop-color="rgb(70.596313%, 97.415161%, 99.967957%)" offset="0.835938"/><stop stop-opacity="1" stop-color="rgb(70.343018%, 97.396851%, 99.972534%)" offset="0.84375"/><stop stop-opacity="1" stop-color="rgb(70.088196%, 97.377014%, 99.977112%)" offset="0.851562"/><stop stop-opacity="1" stop-color="rgb(69.833374%, 97.358704%, 99.983215%)" offset="0.859375"/><stop stop-opacity="1" stop-color="rgb(69.578552%, 97.340393%, 99.987793%)" offset="0.867187"/><stop stop-opacity="1" stop-color="rgb(69.325256%, 97.322083%, 99.992371%)" offset="0.875"/><stop stop-opacity="1" stop-color="rgb(69.0979%, 97.305298%, 99.996948%)" offset="0.996056"/><stop stop-opacity="1" stop-color="rgb(68.998718%, 97.299194%, 100%)" offset="1"/></linearGradient><mask id="689f2e191a"><g filter="url(#ba8ccb6d9a)"><rect x="-81" width="972" fill="#000000" y="-143.999994" height="1727.999922" fill-opacity="0.6078"/></g></mask><clipPath id="b3abd63d7e"><path d="M 1 0.199219 L 373 0.199219 L 373 106 L 1 106 Z M 1 0.199219 " clip-rule="nonzero"/></clipPath><clipPath id="208dd38042"><path d="M 2 0.199219 L 373 0.199219 L 373 95 L 2 95 Z M 2 0.199219 " clip-rule="nonzero"/></clipPath><clipPath id="2edbe1d40e"><rect x="0" width="406" y="0" height="107"/></clipPath><mask id="7df9326f11"><g filter="url(#ba8ccb6d9a)"><rect x="-81" width="972" fill="#000000" y="-143.999994" height="1727.999922" fill-opacity="0.6078"/></g></mask><clipPath id="2e1733cba6"><path d="M 17 12 L 421 12 L 421 125.359375 L 17 125.359375 Z M 17 12 " clip-rule="nonzero"/></clipPath><clipPath id="91483ceaf6"><path d="M 427 91 L 450.839844 91 L 450.839844 106 L 427 106 Z M 427 91 " clip-rule="nonzero"/></clipPath><clipPath id="9222e860df"><rect x="0" width="451" y="0" height="126"/></clipPath></defs><rect x="-81" width="972" fill="#ffffff" y="-143.999994" height="1727.999922" fill-opacity="1"/><rect x="-81" width="972" fill="#ffffff" y="-143.999994" height="1727.999922" fill-opacity="1"/><rect x="-81" width="972" fill="#ffffff" y="-143.999994" height="1727.999922" fill-opacity="1"/><rect x="-81" fill="url(#99439beeaa)" width="972" y="-143.999994" height="1727.999922"/><g clip-path="url(#13b33f37ad)"><g clip-path="url(#2f739f655f)"><path fill="url(#961b3765a8)" d="M 0 451.757812 L 0 1440 L 810 1440 L 810 451.757812 Z M 0 451.757812 " fill-rule="nonzero"/></g></g><g mask="url(#689f2e191a)"><g transform="matrix(1, 0, 0, 1, 0, 151)"><g clip-path="url(#2edbe1d40e)"><g clip-path="url(#b3abd63d7e)"><path fill="#e3fafc" d="M 2.109375 101.121094 C 44.238281 104.519531 64.050781 108.328125 94.773438 104.054688 C 120.277344 100.503906 146.101562 99.292969 171.828125 100.453125 C 221.574219 102.691406 268.402344 97.550781 317.988281 102.152344 C 330.976562 103.355469 345.628906 100.617188 357.644531 100.078125 C 360.675781 99.941406 363.066406 97.03125 365.300781 94.117188 C 366.53125 92.511719 367.710938 90.90625 368.921875 89.761719 C 381.917969 77.46875 358.695312 72.589844 353.765625 68.46875 C 349.445312 64.871094 351.015625 58.570312 346.390625 55.058594 C 341.292969 51.175781 333.820312 53.574219 329.847656 57.9375 C 325.699219 62.480469 324.078125 68.714844 322.597656 74.683594 C 322.453125 69.433594 317.628906 64.785156 312.378906 64.777344 C 307.128906 64.769531 302.304688 69.347656 301.984375 74.582031 C 295.515625 67.023438 296.667969 53.464844 287.691406 49.1875 C 280.367188 45.695312 271.972656 51.464844 266.902344 57.800781 C 261.929688 64.007812 258.097656 71.128906 255.652344 78.695312 C 252.992188 65.554688 248.351562 52.816406 241.921875 41.054688 C 238.695312 35.132812 233.863281 28.792969 227.125 28.777344 C 222.421875 28.769531 218.21875 32.074219 215.835938 36.128906 C 213.445312 40.179688 212.535156 44.910156 211.664062 49.527344 C 208.09375 41.074219 203.6875 32.972656 198.527344 25.394531 C 196.746094 22.777344 194.679688 20.070312 191.6875 19.050781 C 186.027344 17.105469 180.339844 22.023438 177.199219 27.121094 C 173.390625 33.3125 171.109375 40.441406 170.609375 47.699219 C 168.453125 37.710938 164.792969 28.058594 159.789062 19.144531 C 156.578125 13.417969 152.660156 7.855469 147.132812 4.296875 C 141.609375 0.746094 134.171875 -0.425781 128.433594 2.769531 C 123.34375 5.613281 120.484375 11.238281 118.597656 16.753906 C 114.394531 29.042969 113.574219 42.472656 116.25 55.179688 C 108.519531 43.550781 99.152344 30.851562 85.328125 28.886719 C 82.535156 28.488281 79.632812 28.582031 76.984375 29.554688 C 70.863281 31.808594 67.242188 38.445312 66.628906 44.941406 C 66.015625 51.433594 67.839844 57.878906 69.636719 64.148438 C 66.414062 58.425781 62.09375 53.308594 56.980469 49.175781 C 54.460938 47.128906 51.53125 45.25 48.285156 45.222656 C 42.941406 45.179688 38.722656 50.371094 37.9375 55.65625 C 37.152344 60.945312 38.902344 66.246094 40.628906 71.300781 C 36.078125 63.429688 29.449219 54.804688 20.363281 55.230469 C 10.878906 55.675781 5.003906 65.84375 2.921875 75.117188 C 2.910156 75.160156 2.902344 75.195312 2.894531 75.238281 C 1.007812 83.71875 0.742188 92.554688 2.109375 101.121094 Z M 2.109375 101.121094 " fill-opacity="1" fill-rule="nonzero"/></g><g clip-path="url(#208dd38042)"><path fill="#ffffff" d="M 2.914062 75.125 C 11.347656 80.6875 21.234375 84.050781 31.328125 84.535156 C 36.53125 84.785156 41.992188 84.230469 46.433594 81.515625 C 50.882812 78.796875 54.035156 73.46875 52.925781 68.371094 C 56.160156 72.734375 60.046875 76.613281 64.417969 79.847656 C 65.972656 81 67.757812 82.113281 69.6875 81.96875 C 73.109375 81.710938 74.972656 77.742188 75.101562 74.316406 C 75.234375 70.890625 74.382812 67.339844 75.5 64.105469 C 78.558594 69.097656 83.914062 73.417969 89.710938 72.640625 C 95.507812 71.863281 99.511719 63.632812 95.113281 59.773438 C 105.070312 67.527344 117.34375 72.265625 129.929688 73.199219 C 133.496094 73.46875 137.261719 73.394531 140.394531 71.660156 C 147.875 67.519531 147.832031 56.929688 146.785156 48.445312 C 151.207031 61.199219 161.488281 71.789062 174.109375 76.578125 C 176.542969 77.5 179.171875 78.226562 181.722656 77.722656 C 189.238281 76.253906 190.671875 66.578125 190.128906 58.664062 C 190.972656 63.632812 195.695312 67.816406 200.785156 67.75 C 206.410156 67.679688 211.449219 62.453125 211.304688 56.828125 C 217.171875 67.914062 224.726562 78.910156 236.050781 84.316406 C 246.96875 89.53125 262.042969 87.550781 268.582031 77.578125 C 266.3125 82.53125 271.945312 89.121094 277.796875 89.070312 C 284.125 89.011719 289.355469 84.332031 293.761719 79.789062 C 290.714844 83.980469 296.105469 90.042969 301.269531 89.609375 C 306.433594 89.175781 310.390625 85.03125 313.832031 81.148438 C 313.214844 85.367188 317.714844 88.953125 321.984375 88.925781 C 326.253906 88.890625 330.0625 86.371094 333.410156 83.71875 C 336.75 81.070312 340.070312 78.125 344.179688 76.980469 C 345.3125 76.664062 346.542969 76.503906 347.644531 76.894531 C 350.597656 77.9375 350.941406 81.839844 351.792969 84.859375 C 353.46875 90.828125 359.378906 94.136719 365.300781 94.109375 C 366.53125 92.503906 367.710938 90.898438 368.921875 89.753906 C 381.917969 77.464844 358.695312 72.582031 353.765625 68.464844 C 349.445312 64.863281 351.015625 58.5625 346.390625 55.050781 C 341.292969 51.167969 333.820312 53.566406 329.847656 57.929688 C 325.699219 62.472656 324.078125 68.707031 322.597656 74.675781 C 322.453125 69.429688 317.628906 64.777344 312.378906 64.769531 C 307.128906 64.761719 302.304688 69.339844 301.980469 74.574219 C 295.515625 67.015625 296.667969 53.457031 287.691406 49.179688 C 280.367188 45.691406 271.972656 51.457031 266.902344 57.792969 C 261.929688 64 258.097656 71.121094 255.652344 78.6875 C 252.992188 65.546875 248.351562 52.808594 241.921875 41.046875 C 238.695312 35.128906 233.863281 28.785156 227.125 28.769531 C 222.421875 28.761719 218.21875 32.066406 215.835938 36.121094 C 213.445312 40.175781 212.535156 44.90625 211.664062 49.519531 C 208.09375 41.066406 203.6875 32.96875 198.527344 25.386719 C 196.746094 22.773438 194.679688 20.066406 191.6875 19.042969 C 186.027344 17.097656 180.339844 22.015625 177.199219 27.113281 C 173.390625 33.304688 171.109375 40.433594 170.609375 47.691406 C 168.453125 37.703125 164.792969 28.050781 159.789062 19.136719 C 156.578125 13.410156 152.660156 7.847656 147.132812 4.289062 C 141.609375 0.738281 134.171875 -0.433594 128.433594 2.761719 C 123.34375 5.605469 120.484375 11.230469 118.597656 16.746094 C 114.394531 29.035156 113.574219 42.464844 116.25 55.171875 C 108.519531 43.542969 99.152344 30.84375 85.328125 28.878906 C 82.535156 28.480469 79.632812 28.574219 76.984375 29.546875 C 70.863281 31.800781 67.242188 38.4375 66.628906 44.933594 C 66.015625 51.429688 67.839844 57.871094 69.636719 64.144531 C 66.414062 58.417969 62.09375 53.300781 56.980469 49.167969 C 54.460938 47.121094 51.53125 45.242188 48.285156 45.214844 C 42.941406 45.171875 38.722656 50.363281 37.9375 55.648438 C 37.152344 60.9375 38.902344 66.238281 40.628906 71.292969 C 36.078125 63.421875 29.449219 54.796875 20.363281 55.222656 C 10.871094 55.683594 4.996094 65.847656 2.914062 75.125 Z M 2.914062 75.125 " fill-opacity="1" fill-rule="nonzero"/></g><path fill="#e3fafc" d="M 30.75 42.671875 C 31.363281 41.492188 31.234375 40.152344 30.65625 38.992188 C 29.460938 36.589844 25.789062 37.5625 25.828125 40.246094 L 25.839844 41.144531 C 25.855469 42.507812 26.804688 43.738281 28.152344 43.941406 C 29.132812 44.089844 30.074219 43.714844 30.75 42.671875 Z M 30.75 42.671875 " fill-opacity="1" fill-rule="nonzero"/><path fill="#e3fafc" d="M 108.035156 22.375 C 108.734375 16.652344 105.445312 10.660156 100.246094 8.175781 C 97.683594 13.570312 101.46875 20.90625 107.351562 21.945312 Z M 108.035156 22.375 " fill-opacity="1" fill-rule="nonzero"/><path fill="#e3fafc" d="M 305.777344 49 C 305.195312 48.859375 306.339844 48.425781 306.589844 48.964844 C 307.835938 51.679688 304.15625 54.78125 301.429688 53.582031 C 298.699219 52.378906 298.007812 48.417969 299.628906 45.914062 C 300.972656 45.199219 302.449219 44.464844 303.949219 44.726562 C 305.445312 44.984375 306.726562 46.769531 305.90625 48.050781 Z M 305.777344 49 " fill-opacity="1" fill-rule="nonzero"/><path fill="#e3fafc" d="M 384.175781 89.769531 C 387.835938 89.558594 391.492188 89.34375 395.152344 89.132812 C 397.289062 89.011719 399.527344 88.902344 401.472656 89.804688 C 403.417969 90.703125 404.90625 92.964844 404.195312 94.988281 C 403.308594 97.492188 400.023438 97.945312 397.367188 97.976562 C 395.199219 97.996094 393.039062 98.027344 390.875 98.046875 C 389.269531 98.0625 387.511719 98.035156 386.289062 96.996094 C 384.019531 95.089844 385.105469 91.445312 386.375 88.765625 Z M 384.175781 89.769531 " fill-opacity="1" fill-rule="nonzero"/></g></g></g><path fill="#e3fafc" d="M 138.109375 297.027344 C 137.339844 300.117188 134.242188 302.011719 131.269531 303.148438 C 120.160156 307.410156 107.777344 305.785156 95.984375 304.207031 C 13.429688 293.164062 -69.882812 287.726562 -153.1875 287.933594 C -159.976562 287.957031 -190.648438 292.292969 -203.019531 287.410156 C -203.027344 287.417969 -203.027344 287.410156 -203.027344 287.410156 C -206.070312 286.207031 -208 284.449219 -208.203125 281.921875 C -208.503906 278.078125 -205.179688 274.566406 -201.382812 273.867188 C -197.589844 273.175781 -193.652344 274.859375 -190.835938 277.488281 C -196.335938 270.707031 -194.097656 259.148438 -186.464844 254.910156 C -178.832031 250.667969 -167.839844 254.871094 -164.988281 263.125 C -161.523438 258.582031 -156.28125 255.054688 -150.574219 255.023438 C -144.863281 255.003906 -139.046875 259.308594 -138.636719 265.003906 C -137.484375 257.488281 -131.804688 250.839844 -124.554688 248.542969 C -117.300781 246.246094 -108.828125 248.398438 -103.550781 253.886719 C -105.0625 242.703125 -102.332031 230.816406 -95.257812 222.039062 C -88.179688 213.265625 -76.628906 207.988281 -65.441406 209.367188 C -54.246094 210.75 -44.007812 219.21875 -41.4375 230.191406 C -42.726562 222.214844 -35.847656 213.910156 -27.769531 213.695312 C -19.691406 213.488281 -12.382812 221.40625 -13.246094 229.441406 C -8.15625 216.929688 8.890625 211.066406 20.605469 217.808594 C 32.320312 224.554688 35.8125 242.242188 27.53125 252.929688 C 33.496094 245.03125 44.65625 240.855469 53.863281 244.492188 C 63.070312 248.125 68.328125 260.308594 63.367188 268.871094 C 67.203125 262.324219 75.363281 258.625 82.8125 260.050781 C 90.265625 261.476562 96.488281 267.925781 97.632812 275.429688 C 103.390625 273.671875 109.628906 271.929688 115.292969 273.953125 C 120.960938 275.976562 124.863281 283.59375 121.03125 288.230469 C 124.695312 287.648438 128.535156 287.070312 132.054688 288.1875 C 132.15625 288.222656 132.265625 288.257812 132.363281 288.289062 C 135.992188 289.5625 139.039062 293.320312 138.109375 297.027344 Z M 138.109375 297.027344 " fill-opacity="1" fill-rule="nonzero"/><path fill="#ffffff" d="M 132.078125 288.203125 C 131.671875 289.195312 131.148438 290.152344 130.492188 291.074219 C 124.300781 299.777344 111.238281 298.570312 100.769531 296.417969 C 95.652344 295.367188 90.425781 294.277344 85.917969 291.628906 C 81.410156 288.980469 77.667969 284.449219 77.386719 279.230469 C 72.675781 285.679688 63.957031 288.921875 56.179688 287.121094 C 48.398438 285.3125 41.996094 278.566406 40.609375 270.699219 C 35.933594 278.042969 25.277344 280.785156 17.640625 276.617188 C 10.007812 272.441406 6.558594 261.992188 10.214844 254.09375 C -2.132812 265.175781 -24.351562 261.828125 -32.882812 247.59375 C -32.429688 253.296875 -36.53125 259.011719 -42.070312 260.417969 C -47.613281 261.8125 -53.941406 258.730469 -56.253906 253.503906 C -53.769531 262.476562 -59.261719 272.902344 -68.0625 275.925781 C -76.867188 278.941406 -87.609375 274.089844 -91.152344 265.476562 C -91.246094 272.398438 -96.675781 278.871094 -103.476562 280.171875 C -110.273438 281.484375 -117.710938 277.472656 -120.371094 271.078125 C -118.441406 276.488281 -125.007812 281.460938 -130.746094 281.484375 C -136.492188 281.503906 -142.003906 278.820312 -147.742188 278.964844 C -152.378906 279.078125 -156.808594 281.03125 -161.4375 281.355469 C -166.066406 281.679688 -171.5625 279.503906 -172.402344 274.9375 C -179.648438 283.867188 -191.636719 288.527344 -203.019531 287.410156 C -203.027344 287.417969 -203.027344 287.410156 -203.027344 287.410156 C -206.070312 286.207031 -208 284.449219 -208.203125 281.921875 C -208.503906 278.078125 -205.179688 274.566406 -201.382812 273.867188 C -197.589844 273.175781 -193.652344 274.859375 -190.835938 277.488281 C -196.335938 270.707031 -194.097656 259.148438 -186.464844 254.910156 C -178.832031 250.667969 -167.839844 254.871094 -164.988281 263.125 C -161.523438 258.582031 -156.285156 255.054688 -150.574219 255.023438 C -144.863281 255.003906 -139.046875 259.308594 -138.636719 265.003906 C -137.484375 257.488281 -131.804688 250.839844 -124.554688 248.542969 C -117.300781 246.246094 -108.828125 248.398438 -103.550781 253.886719 C -105.0625 242.703125 -102.332031 230.816406 -95.257812 222.039062 C -88.179688 213.265625 -76.628906 207.988281 -65.441406 209.367188 C -54.246094 210.75 -44.007812 219.21875 -41.4375 230.191406 C -42.726562 222.214844 -35.847656 213.910156 -27.769531 213.695312 C -19.691406 213.488281 -12.382812 221.40625 -13.246094 229.441406 C -8.15625 216.929688 8.890625 211.066406 20.605469 217.808594 C 32.320312 224.554688 35.8125 242.242188 27.53125 252.929688 C 33.496094 245.03125 44.65625 240.855469 53.863281 244.492188 C 63.070312 248.125 68.328125 260.308594 63.367188 268.871094 C 67.203125 262.324219 75.363281 258.625 82.8125 260.050781 C 90.265625 261.476562 96.488281 267.925781 97.632812 275.429688 C 103.390625 273.671875 109.628906 271.929688 115.292969 273.953125 C 120.960938 275.976562 124.863281 283.59375 121.03125 288.230469 C 124.710938 287.65625 128.546875 287.085938 132.078125 288.203125 Z M 132.078125 288.203125 " fill-opacity="1" fill-rule="nonzero"/><path fill="#ffffff" d="M 136.058594 279.265625 C 134.121094 281.347656 133.832031 285.207031 136.222656 286.738281 C 138.097656 287.941406 140.585938 287.214844 142.558594 286.1875 C 145.90625 284.4375 148.832031 281.894531 151.019531 278.820312 C 151.71875 277.839844 152.375 276.675781 152.136719 275.492188 C 151.675781 273.167969 148.371094 272.816406 146.195312 273.757812 C 144.023438 274.703125 145.988281 275.671875 143.617188 275.859375 C 141.558594 276.035156 138.003906 277.1875 136.058594 279.265625 Z M 136.058594 279.265625 " fill-opacity="1" fill-rule="nonzero"/><path fill="#ffffff" d="M 42.429688 228.210938 C 41.449219 229.253906 40.449219 230.34375 40.011719 231.703125 C 39.570312 233.0625 39.867188 234.769531 41.070312 235.539062 C 42.773438 236.628906 45.246094 234.957031 45.402344 232.933594 C 45.5625 230.910156 44.019531 229.082031 42.191406 228.203125 Z M 42.429688 228.210938 " fill-opacity="1" fill-rule="nonzero"/><path fill="#ffffff" d="M 112.226562 251.648438 C 113.3125 251.011719 114.636719 250.464844 115.785156 250.976562 C 117.171875 251.597656 117.519531 253.441406 117.265625 254.9375 C 116.660156 258.625 113.796875 261.480469 110.960938 263.910156 C 109.964844 264.765625 108.921875 265.613281 107.691406 266.0625 C 106.453125 266.507812 104.96875 266.472656 103.9375 265.660156 C 99.164062 261.863281 109.519531 253.222656 112.226562 251.648438 Z M 112.226562 251.648438 " fill-opacity="1" fill-rule="nonzero"/><g mask="url(#7df9326f11)"><g transform="matrix(1, 0, 0, 1, 99, 424)"><g clip-path="url(#9222e860df)"><g clip-path="url(#2e1733cba6)"><path fill="#e3fafc" d="M 17.796875 114.949219 C 18.691406 118.542969 22.292969 120.738281 25.746094 122.070312 C 38.65625 127.023438 53.058594 125.128906 66.765625 123.300781 C 162.726562 110.464844 259.566406 104.140625 356.394531 104.386719 C 364.285156 104.40625 399.9375 109.449219 414.316406 103.773438 C 414.324219 103.78125 414.324219 103.773438 414.324219 103.773438 C 417.859375 102.378906 420.113281 100.332031 420.335938 97.402344 C 420.6875 92.929688 416.816406 88.847656 412.410156 88.042969 C 407.996094 87.242188 403.421875 89.195312 400.148438 92.253906 C 406.539062 84.371094 403.941406 70.933594 395.070312 66.011719 C 386.195312 61.078125 373.421875 65.96875 370.101562 75.558594 C 366.078125 70.28125 359.976562 66.175781 353.339844 66.148438 C 346.703125 66.117188 339.941406 71.128906 339.464844 77.746094 C 338.125 69.003906 331.523438 61.289062 323.09375 58.617188 C 314.660156 55.945312 304.8125 58.441406 298.683594 64.824219 C 300.449219 51.828125 297.273438 38.007812 289.042969 27.808594 C 280.820312 17.605469 267.394531 11.46875 254.390625 13.074219 C 241.378906 14.679688 229.472656 24.523438 226.488281 37.28125 C 227.996094 28.007812 219.996094 18.359375 210.601562 18.109375 C 201.203125 17.863281 192.714844 27.074219 193.714844 36.410156 C 187.796875 21.859375 167.984375 15.046875 154.367188 22.890625 C 140.753906 30.730469 136.691406 51.292969 146.3125 63.714844 C 139.378906 54.527344 126.402344 49.679688 115.703125 53.898438 C 104.996094 58.125 98.882812 72.289062 104.660156 82.238281 C 100.203125 74.628906 90.710938 70.324219 82.050781 71.984375 C 73.390625 73.640625 66.160156 81.144531 64.828125 89.863281 C 58.140625 87.828125 50.882812 85.796875 44.300781 88.148438 C 37.71875 90.503906 33.175781 99.359375 37.632812 104.746094 C 33.378906 104.0625 28.914062 103.398438 24.816406 104.695312 C 24.695312 104.738281 24.574219 104.773438 24.457031 104.816406 C 20.261719 106.273438 16.726562 110.644531 17.796875 114.949219 Z M 17.796875 114.949219 " fill-opacity="1" fill-rule="nonzero"/></g><path fill="#ffffff" d="M 24.820312 104.6875 C 25.285156 105.839844 25.898438 106.957031 26.660156 108.03125 C 33.863281 118.152344 49.039062 116.742188 61.207031 114.242188 C 67.15625 113.027344 73.230469 111.757812 78.472656 108.675781 C 83.714844 105.597656 88.0625 100.332031 88.394531 94.269531 C 93.867188 101.773438 104.003906 105.539062 113.046875 103.441406 C 122.097656 101.339844 129.535156 93.5 131.148438 84.347656 C 136.578125 92.878906 148.960938 96.070312 157.84375 91.226562 C 166.722656 86.371094 170.726562 74.226562 166.476562 65.046875 C 180.828125 77.925781 206.65625 74.039062 216.574219 57.484375 C 216.050781 64.109375 220.816406 70.761719 227.253906 72.390625 C 233.699219 74.015625 241.054688 70.429688 243.742188 64.355469 C 240.847656 74.78125 247.242188 86.90625 257.472656 90.410156 C 267.703125 93.917969 280.1875 88.273438 284.3125 78.273438 C 284.429688 86.3125 290.734375 93.84375 298.640625 95.359375 C 306.539062 96.875 315.1875 92.21875 318.277344 84.789062 C 316.03125 91.074219 323.660156 96.855469 330.335938 96.882812 C 337.019531 96.90625 343.425781 93.789062 350.101562 93.953125 C 355.492188 94.089844 360.640625 96.351562 366.019531 96.734375 C 371.40625 97.105469 377.792969 94.585938 378.761719 89.28125 C 387.1875 99.664062 401.113281 105.078125 414.351562 103.773438 C 414.359375 103.78125 414.359375 103.773438 414.359375 103.773438 C 417.894531 102.378906 420.148438 100.332031 420.371094 97.402344 C 420.726562 92.929688 416.851562 88.847656 412.445312 88.042969 C 408.03125 87.242188 403.460938 89.195312 400.183594 92.253906 C 406.578125 84.371094 403.976562 70.933594 395.105469 66.011719 C 386.230469 61.078125 373.457031 65.96875 370.136719 75.558594 C 366.113281 70.28125 360.015625 66.175781 353.375 66.148438 C 346.738281 66.117188 339.976562 71.128906 339.5 77.746094 C 338.164062 69.003906 331.558594 61.289062 323.128906 58.617188 C 314.699219 55.945312 304.847656 58.441406 298.71875 64.824219 C 300.484375 51.828125 297.308594 38.007812 289.078125 27.808594 C 280.855469 17.605469 267.429688 11.46875 254.425781 13.074219 C 241.414062 14.679688 229.507812 24.523438 226.527344 37.28125 C 228.03125 28.007812 220.03125 18.359375 210.636719 18.109375 C 201.238281 17.863281 192.75 27.074219 193.75 36.410156 C 187.832031 21.859375 168.019531 15.046875 154.402344 22.890625 C 140.789062 30.730469 136.726562 51.292969 146.347656 63.714844 C 139.414062 54.527344 126.4375 49.679688 115.738281 53.898438 C 105.035156 58.125 98.921875 72.289062 104.695312 82.238281 C 100.238281 74.628906 90.75 70.324219 82.085938 71.984375 C 73.425781 73.640625 66.195312 81.144531 64.863281 89.863281 C 58.175781 87.828125 50.917969 85.796875 44.335938 88.148438 C 37.757812 90.503906 33.214844 99.359375 37.671875 104.746094 C 33.371094 104.054688 28.914062 103.394531 24.820312 104.6875 Z M 24.820312 104.6875 " fill-opacity="1" fill-rule="nonzero"/><g clip-path="url(#91483ceaf6)"><path fill="#ffffff" d="M 447.351562 95.3125 C 449.417969 96.753906 451.316406 99.402344 450.113281 101.613281 C 449.4375 102.867188 447.984375 103.472656 446.617188 103.882812 C 443.824219 104.71875 440.890625 105.121094 437.976562 105.070312 C 435.558594 105.027344 433.066406 104.652344 431 103.398438 C 428.925781 102.148438 427.355469 99.871094 427.472656 97.453125 C 427.902344 88.640625 443.179688 92.40625 447.351562 95.3125 Z M 447.351562 95.3125 " fill-opacity="1" fill-rule="nonzero"/></g><path fill="#ffffff" d="M 357.769531 52.742188 C 359.976562 52.777344 362.324219 52.847656 364.191406 54.042969 C 366.054688 55.238281 367.097656 57.988281 365.730469 59.730469 C 364.851562 60.855469 363.304688 61.199219 361.886719 61.230469 C 360.214844 61.257812 358.488281 60.90625 357.148438 59.917969 C 355.808594 58.925781 354.929688 57.203125 355.253906 55.570312 C 355.578125 53.9375 357.285156 52.605469 358.914062 52.972656 Z M 357.769531 52.742188 " fill-opacity="1" fill-rule="nonzero"/><path fill="#ffffff" d="M 311.875 51.875 C 310.9375 52.742188 309.832031 53.582031 308.554688 53.570312 C 307.304688 53.554688 306.195312 52.667969 305.554688 51.589844 C 304.914062 50.507812 304.667969 49.257812 304.4375 48.023438 C 303.488281 43.042969 302.578125 38.007812 302.746094 32.941406 C 302.859375 29.226562 303.609375 25.402344 305.792969 22.398438 C 310.917969 15.328125 321.566406 17.8125 321.703125 26.625 C 321.839844 35.769531 318.679688 45.589844 311.875 51.875 Z M 311.875 51.875 " fill-opacity="1" fill-rule="nonzero"/><path fill="#ffffff" d="M 228.59375 5.652344 C 229.328125 7.195312 230.089844 8.847656 229.851562 10.546875 C 229.613281 12.242188 227.921875 13.839844 226.304688 13.304688 C 225.035156 12.890625 224.425781 11.449219 224.15625 10.136719 C 223.703125 7.914062 223.78125 5.582031 224.386719 3.390625 C 224.582031 2.695312 224.878906 1.953125 225.519531 1.605469 C 226.777344 0.9375 228.195312 2.347656 228.585938 3.722656 C 228.972656 5.097656 228.953125 6.691406 229.933594 7.726562 Z M 228.59375 5.652344 " fill-opacity="1" fill-rule="nonzero"/><path fill="#ffffff" d="M 20.179688 94.304688 C 22.433594 96.726562 22.773438 101.203125 19.988281 102.988281 C 17.8125 104.386719 14.917969 103.542969 12.621094 102.347656 C 8.734375 100.316406 5.335938 97.359375 2.785156 93.789062 C 1.972656 92.648438 1.21875 91.296875 1.492188 89.929688 C 2.023438 87.222656 5.867188 86.8125 8.394531 87.914062 C 10.929688 89.007812 8.640625 90.136719 11.390625 90.359375 C 13.796875 90.546875 17.929688 91.886719 20.179688 94.304688 Z M 20.179688 94.304688 " fill-opacity="1" fill-rule="nonzero"/><path fill="#ffffff" d="M 129.015625 34.957031 C 130.15625 36.167969 131.320312 37.433594 131.832031 39.011719 C 132.34375 40.585938 131.996094 42.574219 130.601562 43.46875 C 128.613281 44.734375 125.742188 42.789062 125.5625 40.441406 C 125.378906 38.097656 127.171875 35.964844 129.289062 34.941406 Z M 129.015625 34.957031 " fill-opacity="1" fill-rule="nonzero"/><path fill="#ffffff" d="M 47.894531 62.203125 C 46.632812 61.46875 45.085938 60.828125 43.761719 61.425781 C 42.148438 62.144531 41.746094 64.289062 42.035156 66.03125 C 42.730469 70.316406 46.074219 73.636719 49.371094 76.464844 C 50.53125 77.457031 51.738281 78.453125 53.171875 78.964844 C 54.605469 79.480469 56.332031 79.445312 57.527344 78.496094 C 63.070312 74.074219 51.039062 64.039062 47.894531 62.203125 Z M 47.894531 62.203125 " fill-opacity="1" fill-rule="nonzero"/></g></g></g><path fill="#e3fafc" d="M 861.507812 564.378906 C 798.789062 569.433594 769.292969 575.113281 723.558594 568.742188 C 685.589844 563.457031 647.136719 561.65625 608.847656 563.378906 C 534.789062 566.710938 465.078125 559.058594 391.253906 565.90625 C 371.917969 567.699219 350.101562 563.617188 332.214844 562.824219 C 327.699219 562.621094 324.144531 558.289062 320.816406 553.953125 C 318.988281 551.5625 317.230469 549.179688 315.425781 547.464844 C 296.078125 529.171875 330.644531 521.898438 337.988281 515.773438 C 344.417969 510.40625 342.085938 501.035156 348.960938 495.800781 C 356.550781 490.023438 367.675781 493.589844 373.601562 500.082031 C 379.769531 506.84375 382.191406 516.125 384.394531 525.007812 C 384.601562 517.199219 391.789062 510.269531 399.605469 510.257812 C 407.417969 510.25 414.597656 517.0625 415.085938 524.859375 C 424.707031 513.605469 423 493.414062 436.371094 487.058594 C 447.269531 481.867188 459.769531 490.449219 467.308594 499.875 C 474.710938 509.117188 480.414062 519.71875 484.0625 530.984375 C 488.015625 511.421875 494.933594 492.457031 504.503906 474.949219 C 509.3125 466.140625 516.5 456.695312 526.535156 456.675781 C 533.535156 456.660156 539.796875 461.585938 543.347656 467.625 C 546.90625 473.660156 548.257812 480.699219 549.554688 487.578125 C 554.867188 474.992188 561.433594 462.9375 569.125 451.640625 C 571.773438 447.746094 574.847656 443.722656 579.304688 442.203125 C 587.734375 439.316406 596.203125 446.625 600.867188 454.21875 C 606.542969 463.441406 609.941406 474.054688 610.683594 484.855469 C 613.902344 469.988281 619.351562 455.617188 626.796875 442.347656 C 631.585938 433.820312 637.410156 425.535156 645.636719 420.25 C 653.859375 414.964844 664.933594 413.214844 673.472656 417.980469 C 681.046875 422.214844 685.304688 430.582031 688.109375 438.796875 C 694.367188 457.09375 695.585938 477.085938 691.601562 496 C 703.125 478.683594 717.054688 459.777344 737.640625 456.855469 C 741.792969 456.265625 746.121094 456.402344 750.058594 457.847656 C 759.167969 461.203125 764.5625 471.089844 765.476562 480.75 C 766.390625 490.421875 763.675781 500.019531 760.996094 509.34375 C 765.804688 500.816406 772.230469 493.207031 779.839844 487.042969 C 783.589844 484 787.953125 481.203125 792.785156 481.160156 C 800.742188 481.097656 807.011719 488.824219 808.191406 496.691406 C 809.367188 504.570312 806.761719 512.453125 804.191406 519.984375 C 810.964844 508.269531 820.835938 495.425781 834.359375 496.058594 C 848.476562 496.722656 857.21875 511.855469 860.320312 525.664062 C 860.335938 525.730469 860.351562 525.789062 860.363281 525.84375 C 863.148438 538.472656 863.546875 551.621094 861.507812 564.378906 Z M 861.507812 564.378906 " fill-opacity="1" fill-rule="nonzero"/><path fill="#ffffff" d="M 860.304688 525.671875 C 847.757812 533.953125 833.03125 538.964844 818.007812 539.683594 C 810.25 540.050781 802.136719 539.238281 795.511719 535.191406 C 788.890625 531.136719 784.203125 523.210938 785.84375 515.621094 C 781.027344 522.113281 775.246094 527.898438 768.742188 532.707031 C 766.425781 534.425781 763.769531 536.082031 760.894531 535.867188 C 755.804688 535.484375 753.035156 529.574219 752.832031 524.476562 C 752.636719 519.378906 753.90625 514.09375 752.242188 509.269531 C 747.691406 516.695312 739.714844 523.128906 731.089844 521.976562 C 722.457031 520.828125 716.5 508.566406 723.054688 502.828125 C 708.234375 514.367188 689.953125 521.417969 671.21875 522.820312 C 665.914062 523.214844 660.304688 523.109375 655.644531 520.53125 C 644.5 514.375 644.574219 498.601562 646.128906 485.972656 C 639.546875 504.957031 624.234375 520.71875 605.449219 527.847656 C 601.828125 529.214844 597.917969 530.292969 594.113281 529.554688 C 582.917969 527.363281 580.796875 512.957031 581.59375 501.183594 C 580.339844 508.578125 573.3125 514.808594 565.726562 514.714844 C 557.351562 514.605469 549.855469 506.824219 550.066406 498.457031 C 541.332031 514.964844 530.078125 531.332031 513.230469 539.375 C 496.980469 547.136719 474.539062 544.183594 464.796875 529.34375 C 468.171875 536.714844 459.792969 546.523438 451.074219 546.445312 C 441.65625 546.359375 433.863281 539.386719 427.304688 532.628906 C 431.839844 538.863281 423.8125 547.890625 416.132812 547.242188 C 408.441406 546.601562 402.542969 540.425781 397.425781 534.648438 C 398.355469 540.9375 391.644531 546.269531 385.292969 546.226562 C 378.941406 546.175781 373.261719 542.417969 368.285156 538.480469 C 363.3125 534.542969 358.371094 530.148438 352.253906 528.449219 C 350.566406 527.984375 348.738281 527.738281 347.089844 528.320312 C 342.691406 529.871094 342.179688 535.6875 340.917969 540.179688 C 338.414062 549.070312 329.625 553.996094 320.816406 553.953125 C 318.988281 551.5625 317.230469 549.179688 315.425781 547.464844 C 296.078125 529.171875 330.644531 521.898438 337.988281 515.773438 C 344.417969 510.40625 342.085938 501.035156 348.960938 495.800781 C 356.550781 490.023438 367.675781 493.589844 373.601562 500.082031 C 379.769531 506.84375 382.191406 516.125 384.394531 525.007812 C 384.601562 517.199219 391.789062 510.269531 399.605469 510.257812 C 407.417969 510.25 414.597656 517.0625 415.085938 524.859375 C 424.707031 513.605469 423 493.414062 436.371094 487.058594 C 447.269531 481.867188 459.769531 490.449219 467.308594 499.875 C 474.710938 509.121094 480.414062 519.71875 484.0625 530.984375 C 488.015625 511.421875 494.933594 492.457031 504.503906 474.949219 C 509.3125 466.140625 516.5 456.695312 526.535156 456.675781 C 533.535156 456.660156 539.796875 461.585938 543.347656 467.625 C 546.90625 473.660156 548.257812 480.699219 549.554688 487.578125 C 554.867188 474.992188 561.433594 462.9375 569.125 451.640625 C 571.773438 447.746094 574.847656 443.722656 579.304688 442.203125 C 587.734375 439.316406 596.203125 446.625 600.867188 454.21875 C 606.542969 463.441406 609.941406 474.054688 610.683594 484.855469 C 613.902344 469.988281 619.351562 455.617188 626.796875 442.347656 C 631.582031 433.820312 637.410156 425.535156 645.636719 420.25 C 653.859375 414.964844 664.933594 413.214844 673.472656 417.980469 C 681.046875 422.214844 685.304688 430.582031 688.109375 438.796875 C 694.367188 457.09375 695.585938 477.085938 691.601562 496 C 703.125 478.683594 717.054688 459.777344 737.640625 456.855469 C 741.792969 456.265625 746.121094 456.402344 750.058594 457.847656 C 759.167969 461.203125 764.5625 471.089844 765.476562 480.75 C 766.390625 490.421875 763.675781 500.019531 760.996094 509.34375 C 765.804688 500.816406 772.230469 493.207031 779.839844 487.042969 C 783.589844 484 787.953125 481.203125 792.785156 481.160156 C 800.742188 481.097656 807.011719 488.824219 808.191406 496.691406 C 809.367188 504.570312 806.761719 512.453125 804.191406 519.984375 C 810.964844 508.269531 820.835938 495.425781 834.359375 496.058594 C 848.46875 496.726562 857.210938 511.863281 860.304688 525.671875 Z M 860.304688 525.671875 " fill-opacity="1" fill-rule="nonzero"/><path fill="#e3fafc" d="M 703.808594 447.148438 C 702.769531 438.632812 707.667969 429.710938 715.40625 426.007812 C 719.214844 434.039062 713.585938 444.960938 704.828125 446.5 Z M 703.808594 447.148438 " fill-opacity="1" fill-rule="nonzero"/><path fill="#e3fafc" d="M 409.429688 486.785156 C 410.292969 486.574219 408.59375 485.929688 408.21875 486.734375 C 406.367188 490.773438 411.839844 495.394531 415.90625 493.601562 C 419.976562 491.808594 421 485.921875 418.585938 482.191406 C 416.585938 481.132812 414.390625 480.039062 412.15625 480.425781 C 409.925781 480.816406 408.015625 483.472656 409.246094 485.378906 Z M 409.429688 486.785156 " fill-opacity="1" fill-rule="nonzero"/><path fill="#e3fafc" d="M 292.714844 547.464844 C 287.265625 547.148438 281.824219 546.832031 276.378906 546.515625 C 273.195312 546.328125 269.863281 546.171875 266.96875 547.515625 C 264.074219 548.855469 261.855469 552.226562 262.914062 555.234375 C 264.234375 558.957031 269.121094 559.632812 273.074219 559.675781 C 276.300781 559.714844 279.519531 559.75 282.742188 559.785156 C 285.132812 559.8125 287.746094 559.765625 289.578125 558.222656 C 292.953125 555.378906 291.332031 549.964844 289.445312 545.976562 Z M 292.714844 547.464844 " fill-opacity="1" fill-rule="nonzero"/><path fill="#ffffff" d="M 802.800781 785.253906 C 800.085938 775.382812 811.691406 764.90625 821.230469 768.613281 C 824.0625 773.1875 825.59375 778.808594 824.277344 784.03125 C 822.960938 789.25 818.316406 793.765625 812.9375 793.894531 C 807.558594 794.023438 802.382812 788.78125 803.460938 783.511719 Z M 802.800781 785.253906 " fill-opacity="1" fill-rule="nonzero"/><path fill="#ffffff" d="M 850.199219 233.699219 C 848.84375 222.820312 849.332031 211.472656 845.144531 201.339844 C 840.953125 191.21875 829.820312 182.671875 819.445312 186.191406 C 811.539062 188.878906 807.132812 197.429688 805.601562 205.640625 C 804.066406 213.847656 804.585938 222.378906 802.546875 230.472656 C 796.988281 218.058594 785.640625 208.382812 772.507812 204.863281 C 767.636719 203.558594 761.960938 203.210938 758.007812 206.34375 C 751.566406 211.449219 753.78125 221.574219 756.605469 229.296875 C 751.019531 226.035156 744.730469 223.15625 738.316406 223.976562 C 731.902344 224.796875 725.796875 230.761719 727.0625 237.101562 C 727.90625 241.285156 731.648438 244.402344 735.703125 245.722656 C 739.757812 247.039062 744.128906 246.894531 748.390625 246.714844 C 764.65625 246.039062 863.144531 248.175781 864.820312 233.367188 C 863.503906 232.644531 849.738281 230.039062 850.199219 233.699219 Z M 850.199219 233.699219 " fill-opacity="1" fill-rule="nonzero"/><path fill="#ffffff" d="M 708.566406 221.839844 C 708.214844 229.105469 698.644531 234.042969 692.515625 230.121094 C 686.390625 226.195312 686.878906 215.429688 693.339844 212.082031 C 699.796875 208.734375 708.875 214.523438 708.566406 221.789062 Z M 708.566406 221.839844 " fill-opacity="1" fill-rule="nonzero"/><path fill="#ffffff" d="M 798.335938 197.0625 C 796.851562 192.140625 795.132812 186.863281 790.96875 183.835938 C 786.808594 180.8125 779.492188 181.878906 778.253906 186.867188 C 777.5 189.914062 779.257812 193.039062 781.445312 195.277344 C 786.003906 199.957031 792.800781 202.347656 799.277344 201.558594 Z M 798.335938 197.0625 " fill-opacity="1" fill-rule="nonzero"/><path fill="#ffffff" d="M 1109.972656 260.777344 C 1032.746094 262.261719 955.511719 263.75 878.285156 265.234375 C 836.292969 266.039062 765.300781 269.25 732.664062 253.441406 C 858.875 257.78125 983.195312 262.9375 1109.972656 260.777344 Z M 1109.972656 260.777344 " fill-opacity="0.5569" fill-rule="nonzero"/><path fill="#ffffff" d="M 1066.738281 571.40625 C 1066.789062 571.472656 1066.320312 571.933594 1065.363281 572.78125 C 1064.871094 573.199219 1064.269531 573.71875 1063.546875 574.335938 C 1062.828125 574.964844 1061.921875 575.582031 1060.917969 576.339844 C 1056.902344 579.320312 1050.636719 583.328125 1041.925781 587.230469 C 1037.554688 589.132812 1032.601562 591.035156 1027.058594 592.738281 C 1021.515625 594.460938 1015.386719 595.949219 1008.742188 597.210938 C 995.441406 599.773438 980.050781 600.976562 963.128906 601.675781 C 954.664062 602.035156 945.804688 602.28125 936.605469 602.710938 C 927.402344 603.136719 917.871094 603.777344 908.050781 604.972656 C 898.222656 606.152344 888.078125 607.789062 877.542969 609.222656 C 867.015625 610.652344 856.058594 611.863281 844.710938 611.933594 C 839.042969 611.992188 833.277344 611.675781 827.511719 611.035156 C 821.742188 610.410156 815.96875 609.5 810.179688 608.492188 C 804.390625 607.492188 798.582031 606.398438 792.71875 605.425781 C 791.257812 605.1875 789.789062 604.957031 788.3125 604.722656 C 786.835938 604.519531 785.363281 604.316406 783.878906 604.109375 C 782.394531 603.90625 780.910156 603.707031 779.421875 603.503906 C 777.929688 603.316406 776.425781 603.179688 774.929688 603.015625 C 750.878906 600.414062 725.722656 600.550781 699.976562 601.414062 C 687.074219 601.890625 674.332031 602.359375 661.765625 602.820312 C 649.1875 603.253906 636.753906 603.460938 624.558594 603.382812 C 600.15625 603.246094 576.664062 602.257812 554.304688 601.222656 C 531.957031 600.175781 510.738281 599.097656 490.875 598.464844 C 471.015625 597.800781 452.511719 597.605469 435.636719 597.9375 C 418.757812 598.261719 403.507812 599.167969 390.160156 600.394531 C 376.8125 601.617188 365.363281 603.195312 356.039062 604.671875 C 346.730469 606.234375 339.523438 607.621094 334.648438 608.625 C 329.773438 609.636719 327.195312 610.097656 327.152344 609.941406 C 327.109375 609.78125 329.617188 609.011719 334.433594 607.695312 C 339.25 606.390625 346.414062 604.707031 355.722656 602.855469 C 365.039062 601.097656 376.503906 599.242188 389.902344 597.757812 C 403.292969 596.273438 418.609375 595.128906 435.558594 594.589844 C 452.503906 594.042969 471.082031 594.050781 490.996094 594.539062 C 510.914062 595.007812 532.167969 595.945312 554.507812 596.867188 C 576.851562 597.78125 600.292969 598.671875 624.585938 598.746094 C 636.730469 598.796875 649.074219 598.558594 661.621094 598.117188 C 674.1875 597.648438 686.929688 597.167969 699.832031 596.6875 C 725.660156 595.820312 751.054688 595.707031 775.441406 598.40625 C 776.964844 598.578125 778.484375 598.722656 779.996094 598.917969 C 781.507812 599.125 783.023438 599.335938 784.527344 599.542969 C 786.03125 599.753906 787.527344 599.96875 789.027344 600.175781 C 790.515625 600.421875 792.007812 600.667969 793.492188 600.90625 C 799.414062 601.90625 805.226562 603.023438 810.972656 604.035156 C 822.464844 606.089844 833.671875 607.660156 844.710938 607.566406 C 855.75 607.550781 866.535156 606.441406 877.003906 605.089844 C 887.480469 603.742188 897.667969 602.179688 907.601562 601.070312 C 917.546875 599.941406 927.207031 599.386719 936.453125 599.054688 C 945.707031 598.714844 954.570312 598.570312 963.015625 598.320312 C 979.890625 597.84375 995.117188 596.878906 1008.28125 594.597656 C 1014.863281 593.480469 1020.929688 592.136719 1026.433594 590.574219 C 1031.933594 589.019531 1036.855469 587.273438 1041.21875 585.53125 C 1049.902344 581.945312 1056.238281 578.246094 1060.394531 575.546875 C 1061.425781 574.863281 1062.375 574.308594 1063.128906 573.746094 C 1063.902344 573.207031 1064.554688 572.753906 1065.074219 572.394531 C 1066.117188 571.679688 1066.6875 571.347656 1066.738281 571.40625 Z M 1066.738281 571.40625 " fill-opacity="0.5569" fill-rule="nonzero"/><path fill="#ffffff" d="M 251.667969 297.894531 C 249.675781 298.519531 247.167969 299.175781 244.230469 299.988281 C 241.300781 300.84375 237.875 301.660156 234.023438 302.617188 C 226.308594 304.445312 216.820312 306.460938 205.695312 308.226562 C 194.578125 310.003906 181.84375 311.535156 167.710938 312.761719 C 153.574219 314.007812 138.054688 314.933594 121.363281 315.828125 C 104.671875 316.699219 86.859375 317.878906 68.21875 317.167969 C 58.902344 316.8125 49.429688 315.820312 39.765625 314.292969 C 30.109375 312.769531 20.296875 310.789062 10.265625 308.75 C 0.238281 306.726562 -10.007812 304.644531 -20.542969 303.097656 C -31.074219 301.492188 -41.890625 300.636719 -52.804688 300.296875 C -63.726562 299.960938 -74.511719 300.152344 -85.105469 300.628906 C -95.695312 301.140625 -106.105469 301.894531 -116.316406 302.695312 C -126.527344 303.5 -136.527344 304.359375 -146.324219 305.070312 C -151.222656 305.453125 -156.066406 305.734375 -160.863281 306.042969 C -165.652344 306.273438 -170.386719 306.554688 -175.0625 306.667969 C -193.765625 307.273438 -211.578125 306.71875 -228.277344 306.070312 C -244.972656 305.417969 -260.546875 304.734375 -274.796875 304.523438 C -289.042969 304.273438 -301.960938 304.625 -313.265625 305.394531 C -313.855469 305.429688 -314.429688 305.46875 -315.015625 305.511719 L -315.015625 308.117188 C -314.386719 308.089844 -313.753906 308.058594 -313.113281 308.039062 C -301.875 307.519531 -289.050781 307.402344 -274.867188 307.863281 C -260.683594 308.28125 -245.152344 309.160156 -228.441406 309.988281 C -211.738281 310.808594 -193.816406 311.515625 -174.929688 311.027344 C -170.207031 310.9375 -165.441406 310.6875 -160.617188 310.476562 C -155.800781 310.199219 -150.917969 309.9375 -146.007812 309.578125 C -136.171875 308.910156 -126.152344 308.089844 -115.964844 307.316406 C -105.773438 306.546875 -95.414062 305.820312 -84.902344 305.332031 C -74.390625 304.875 -63.726562 304.695312 -52.964844 305.027344 C -42.199219 305.367188 -31.601562 306.195312 -21.238281 307.757812 C -10.863281 309.261719 -0.691406 311.304688 9.339844 313.292969 C 19.367188 315.296875 29.261719 317.261719 39.054688 318.757812 C 48.835938 320.261719 58.566406 321.226562 68.039062 321.523438 C 86.996094 322.121094 104.902344 320.78125 121.570312 319.746094 C 138.261719 318.679688 153.820312 317.554688 167.996094 316.09375 C 182.175781 314.648438 194.960938 312.875 206.113281 310.839844 C 217.265625 308.816406 226.765625 306.511719 234.453125 304.402344 C 238.292969 303.300781 241.695312 302.34375 244.597656 301.339844 C 247.515625 300.382812 249.984375 299.585938 251.933594 298.808594 C 255.859375 297.316406 257.890625 296.460938 257.832031 296.308594 C 257.808594 296.144531 255.679688 296.699219 251.667969 297.894531 Z M 251.667969 297.894531 " fill-opacity="0.5569" fill-rule="nonzero"/><path fill="#ffffff" d="M 1044.34375 611.65625 C 1044.402344 611.804688 1042.371094 612.664062 1038.449219 614.152344 C 1036.496094 614.929688 1034.027344 615.730469 1031.113281 616.6875 C 1028.210938 617.6875 1024.796875 618.644531 1020.96875 619.746094 C 1013.277344 621.855469 1003.78125 624.160156 992.628906 626.183594 C 981.484375 628.222656 968.6875 630 954.511719 631.441406 C 940.335938 632.902344 924.773438 634.023438 908.085938 635.089844 C 891.410156 636.132812 873.511719 637.472656 854.554688 636.867188 C 845.078125 636.574219 835.359375 635.609375 825.566406 634.105469 C 815.773438 632.605469 805.875 630.640625 795.851562 628.640625 C 785.824219 626.652344 775.648438 624.605469 765.273438 623.101562 C 754.914062 621.539062 744.316406 620.710938 733.550781 620.375 C 722.785156 620.042969 712.125 620.222656 701.609375 620.675781 C 691.097656 621.164062 680.738281 621.894531 670.550781 622.664062 C 660.363281 623.441406 650.339844 624.261719 640.503906 624.925781 C 635.585938 625.285156 630.714844 625.542969 625.894531 625.824219 C 621.070312 626.03125 616.304688 626.285156 611.582031 626.371094 C 592.695312 626.859375 574.777344 626.15625 558.070312 625.335938 C 541.359375 624.511719 525.832031 623.636719 511.648438 623.210938 C 497.460938 622.75 484.640625 622.863281 473.398438 623.382812 C 462.148438 623.808594 452.519531 624.960938 444.65625 625.960938 C 436.832031 627.15625 430.746094 628.179688 426.679688 629.105469 C 422.582031 629.941406 420.40625 630.300781 420.363281 630.144531 C 420.320312 629.984375 422.417969 629.316406 426.457031 628.179688 C 430.472656 626.945312 436.527344 625.628906 444.371094 624.144531 C 452.238281 622.859375 461.921875 621.433594 473.242188 620.746094 C 484.554688 619.976562 497.46875 619.625 511.710938 619.875 C 525.960938 620.085938 541.539062 620.769531 558.230469 621.425781 C 574.921875 622.074219 592.738281 622.628906 611.445312 622.023438 C 616.117188 621.90625 620.855469 621.625 625.644531 621.394531 C 630.433594 621.085938 635.277344 620.804688 640.179688 620.425781 C 649.980469 619.710938 659.980469 618.855469 670.191406 618.046875 C 680.398438 617.242188 690.804688 616.484375 701.402344 615.980469 C 712 615.507812 722.785156 615.3125 733.703125 615.648438 C 744.617188 615.988281 755.429688 616.84375 765.964844 618.453125 C 776.5 620 786.742188 622.078125 796.773438 624.101562 C 806.796875 626.140625 816.617188 628.121094 826.273438 629.648438 C 835.925781 631.171875 845.410156 632.167969 854.726562 632.519531 C 873.367188 633.234375 891.171875 632.050781 907.871094 631.179688 C 924.558594 630.289062 940.082031 629.359375 954.214844 628.113281 C 968.351562 626.890625 981.085938 625.355469 992.203125 623.578125 C 1003.328125 621.8125 1012.808594 619.789062 1020.527344 617.96875 C 1024.371094 617.011719 1027.800781 616.199219 1030.738281 615.339844 C 1033.683594 614.527344 1036.1875 613.878906 1038.175781 613.246094 C 1042.15625 612.058594 1044.296875 611.503906 1044.34375 611.65625 Z M 1044.34375 611.65625 " fill-opacity="0.5569" fill-rule="nonzero"/><path fill="#ffffff" d="M 41.859375 738.273438 C 41.941406 738.417969 41.082031 739.042969 39.355469 740.117188 C 38.503906 740.6875 37.367188 741.210938 36.042969 741.878906 C 34.726562 742.585938 33.113281 743.15625 31.320312 743.898438 C 27.675781 745.191406 23.089844 746.472656 17.640625 747.253906 C 12.195312 748.035156 5.910156 748.332031 -0.992188 747.992188 C -7.890625 747.65625 -15.402344 746.660156 -23.335938 745.113281 C -31.261719 743.578125 -39.605469 741.558594 -48.371094 739.628906 C -57.132812 737.699219 -66.339844 735.882812 -75.9375 735.132812 C -80.742188 734.765625 -85.601562 734.667969 -90.5625 734.984375 C -95.53125 735.269531 -100.605469 735.863281 -105.824219 736.328125 C -111.03125 736.804688 -116.308594 737.136719 -121.492188 736.921875 C -126.667969 736.746094 -131.710938 736.1875 -136.605469 735.550781 C -146.390625 734.269531 -155.640625 732.671875 -164.492188 732.421875 C -173.347656 732.054688 -181.808594 732.605469 -189.667969 733.601562 C -197.539062 734.601562 -204.8125 736.042969 -211.421875 737.539062 C -218.023438 739.050781 -223.96875 740.59375 -229.175781 742.03125 C -234.382812 743.457031 -238.859375 744.753906 -242.53125 745.78125 C -249.863281 747.871094 -253.957031 748.914062 -254.066406 748.597656 C -254.167969 748.296875 -250.273438 746.65625 -243.101562 744.027344 C -239.515625 742.722656 -235.109375 741.167969 -229.9375 739.492188 C -224.777344 737.796875 -218.84375 736.019531 -212.210938 734.277344 C -205.582031 732.550781 -198.222656 730.894531 -190.210938 729.707031 C -182.195312 728.515625 -173.511719 727.796875 -164.347656 728.050781 C -155.152344 728.195312 -145.683594 729.742188 -136.023438 730.945312 C -131.191406 731.535156 -126.289062 732.054688 -121.339844 732.203125 C -116.402344 732.390625 -111.398438 732.074219 -106.25 731.605469 C -101.109375 731.136719 -95.976562 730.554688 -90.828125 730.265625 C -85.671875 729.957031 -80.53125 730.085938 -75.5625 730.496094 C -65.597656 731.339844 -56.210938 733.296875 -47.40625 735.359375 C -38.59375 737.425781 -30.328125 739.578125 -22.542969 741.253906 C -14.773438 742.9375 -7.472656 744.097656 -0.769531 744.636719 C 5.933594 745.171875 12.023438 745.121094 17.324219 744.601562 C 22.628906 744.097656 27.128906 743.117188 30.75 742.125 C 37.957031 740 41.660156 737.898438 41.859375 738.273438 Z M 41.859375 738.273438 " fill-opacity="1" fill-rule="nonzero"/><path fill="#ffffff" d="M 1113.816406 825.449219 C 1113.890625 825.59375 1112.941406 826.222656 1111.03125 827.289062 C 1110.558594 827.566406 1110.007812 827.835938 1109.398438 828.109375 C 1108.785156 828.390625 1108.117188 828.691406 1107.386719 829.023438 C 1106.667969 829.367188 1105.855469 829.648438 1104.992188 829.972656 C 1104.128906 830.273438 1103.210938 830.664062 1102.21875 830.953125 C 1098.265625 832.253906 1093.277344 833.394531 1087.402344 834.078125 C 1081.527344 834.78125 1074.773438 834.90625 1067.363281 834.421875 C 1065.507812 834.328125 1063.621094 834.113281 1061.691406 833.945312 C 1059.769531 833.714844 1057.789062 833.515625 1055.792969 833.210938 C 1051.785156 832.664062 1047.644531 831.9375 1043.386719 831.117188 C 1034.871094 829.488281 1025.878906 827.402344 1016.410156 825.542969 C 1006.949219 823.6875 996.976562 822.082031 986.625 821.800781 C 976.277344 821.484375 965.476562 822.738281 954.257812 823.613281 C 948.652344 824.054688 943.042969 824.347656 937.484375 824.292969 C 931.910156 824.226562 926.445312 823.695312 921.167969 823.003906 C 910.605469 821.597656 900.65625 819.691406 891.136719 819.121094 C 881.617188 818.53125 872.472656 819.035156 863.921875 819.707031 C 855.359375 820.398438 847.339844 821.1875 840.039062 821.808594 C 825.414062 823.097656 813.578125 824.054688 805.386719 824.609375 C 797.191406 825.164062 792.648438 825.320312 792.613281 824.996094 C 792.574219 824.671875 797.0625 823.902344 805.199219 822.78125 C 813.332031 821.65625 825.121094 820.195312 839.699219 818.480469 C 846.992188 817.644531 854.957031 816.667969 863.582031 815.796875 C 872.199219 814.953125 881.523438 814.285156 891.390625 814.773438 C 901.273438 815.242188 911.390625 817.097656 921.765625 818.410156 C 926.957031 819.058594 932.207031 819.539062 937.546875 819.589844 C 942.898438 819.625 948.355469 819.339844 953.898438 818.898438 C 964.988281 818.035156 975.980469 816.773438 986.765625 817.171875 C 997.539062 817.53125 1007.742188 819.289062 1017.28125 821.273438 C 1026.828125 823.277344 1035.777344 825.496094 1044.171875 827.273438 C 1048.371094 828.171875 1052.429688 828.972656 1056.339844 829.605469 C 1058.300781 829.949219 1060.222656 830.195312 1062.101562 830.46875 C 1063.988281 830.679688 1065.832031 830.945312 1067.636719 831.089844 C 1074.859375 831.765625 1081.425781 831.878906 1087.15625 831.441406 C 1092.886719 831.015625 1097.785156 830.179688 1101.714844 829.179688 C 1102.707031 828.964844 1103.609375 828.65625 1104.480469 828.425781 C 1105.34375 828.171875 1106.164062 827.972656 1106.898438 827.699219 C 1107.640625 827.445312 1108.324219 827.214844 1108.949219 827.007812 C 1109.585938 826.804688 1110.152344 826.609375 1110.648438 826.410156 C 1112.644531 825.644531 1113.746094 825.300781 1113.816406 825.449219 Z M 1113.816406 825.449219 " fill-opacity="1" fill-rule="nonzero"/></svg>